<?xml version="1.0" encoding="UTF-8" standalone="no"?>
<!-- Created with Inkscape (http://www.inkscape.org/) -->

<svg
        version="1.1"
        id="svg2"
        xml:space="preserve"
        width="460"
        height="460"
        viewBox="0 0 460 459.99999"
        xmlns="http://www.w3.org/2000/svg"
><defs
     id="defs6"><clipPath
       clipPathUnits="userSpaceOnUse"
       id="clipPath16"><path
         d="M 0,400 H 680 V 0 H 0 Z"
         id="path14" /></clipPath></defs>
    <g
            id="g8"
            transform="matrix(1.3333333,0,0,-1.3333333,-223.81813,311.32839)"><g
       id="g1056"
       transform="translate(0.36350601,-65.676606)"><g
         id="g62"
         transform="translate(266.0586,176.2893)"><path
           d="M 0,0 C 0.898,1.713 1.864,3.375 2.86,5.022 1.874,3.371 0.898,1.707 0,0 m 223.042,-48.12 c -2.114,-7.597 -6.633,-14.161 -12.701,-18.857 h -0.001 c 5.559,5.344 9.403,12.455 10.642,20.443 0.28,1.817 0.471,3.661 0.471,5.555 0,17.708 -12.761,32.413 -29.58,35.492 C 175.075,31.481 137.851,57.207 94.594,57.207 63.872,57.207 36.195,44.217 16.707,23.454 12.015,18.452 7.82,12.983 4.156,7.154 c 2.812,6.112 6.215,11.914 10.102,17.369 -4.11,1.635 -8.573,2.569 -13.266,2.569 -16.514,0 -30.408,-11.1 -34.707,-26.236 -36.716,-6.966 -64.48,-39.201 -64.48,-77.939 0,-43.69 35.306,-79.122 78.944,-79.346 l 80.695,125.525 c 0.035,0.055 0.052,0.115 0.087,0.168 l 8.472,13.352 -10.047,15.837 c -1.014,1.595 -0.54,3.703 1.052,4.713 1.206,0.767 2.707,0.679 3.805,-0.101 l -0.067,0.153 0.14,-0.215 c 0.32,-0.24 0.609,-0.533 0.833,-0.89 l 8.326,-13.122 3.386,5.34 c 1.013,1.593 3.121,2.064 4.715,1.053 1.59,-1.01 2.063,-3.118 1.053,-4.713 l -5.113,-8.055 3.538,-5.573 c 0.126,-0.199 0.228,-0.408 0.314,-0.627 l 85.206,-132.855 h 18.199 c 33.547,0 60.735,27.194 60.735,60.734 0,19.295 -9.015,36.462 -23.036,47.585"
           style="fill:#00395f;fill-opacity:1;fill-rule:nonzero;stroke:none"
           id="path64" /></g><g
            id="g66"
            transform="translate(342.7578,130.1135)"><path
           d="m 0,0 -33.868,-110.264 h 51.763 10.46 l -30.017,97.702 z"
           style="fill:#00a68e;fill-opacity:1;fill-rule:nonzero;stroke:none"
           id="path68" /></g></g></g></svg>
